<svg width="450" height="167" viewBox="0 0 450 167" fill="none" xmlns="http://www.w3.org/2000/svg">
<path d="M102.879 166.852C97.171 166.852 92.4791 166.281 88.7994 165.14C85.0588 164.061 82.2676 162.952 80.4277 161.81L89.275 140.31C90.291 141.134 91.3679 141.705 92.5095 142.023C93.6511 142.403 94.9525 142.593 96.4099 142.593C98.1223 142.593 99.5493 142.118 100.691 141.166C101.897 140.215 102.784 138.788 103.355 136.886C103.99 135.046 104.306 132.762 104.306 130.036V46.8906H133.226V134.602C133.226 140.628 132.18 146.081 130.087 150.965C127.994 155.849 124.729 159.717 120.288 162.571C115.849 165.425 110.046 166.852 102.879 166.852Z" fill="black"/>
<path d="M206.013 44.6075C213.624 44.6075 220.125 46.4797 225.515 50.2203C230.968 53.9628 235.156 58.9725 238.073 65.2512C240.991 71.4672 242.449 78.3794 242.449 85.99C242.449 93.6006 240.894 100.547 237.787 106.824C234.68 113.04 230.302 118.017 224.659 121.76C219.077 125.437 212.482 127.277 204.871 127.277C199.418 127.277 194.755 126.326 190.887 124.423C187.082 122.458 184.068 120.3 181.849 117.954C179.692 115.544 178.33 113.673 177.759 112.342V164.569H149.124V46.8907H178.044V58.3066C178.931 56.5314 180.613 54.5964 183.086 52.5035C185.622 50.3459 188.826 48.508 192.695 46.9858C196.627 45.4009 201.066 44.6075 206.013 44.6075ZM196.31 67.3441C192.822 67.3441 189.683 68.1699 186.891 69.8176C184.165 71.4044 182.007 73.6228 180.422 76.4768C178.836 79.268 178.044 82.4397 178.044 85.99C178.044 89.5422 178.836 92.7444 180.422 95.5983C182.007 98.3895 184.165 100.578 186.891 102.162C189.683 103.747 192.822 104.541 196.31 104.541C199.672 104.541 202.683 103.749 205.347 102.162C208.075 100.578 210.229 98.3895 211.816 95.5983C213.401 92.7444 214.194 89.5422 214.194 85.99C214.194 82.4397 213.401 79.268 211.816 76.4768C210.229 73.6228 208.074 71.4044 205.347 69.8176C202.683 68.1699 199.672 67.3441 196.31 67.3441Z" fill="black"/>
<path d="M287.048 44.6075C291.931 44.6075 296.212 45.4009 299.891 46.9858C303.569 48.508 306.551 50.3459 308.834 52.5035C311.117 54.5964 312.702 56.5314 313.59 58.3066V46.8907H342.32V124.994H313.874V112.342C313.303 113.611 311.846 115.451 309.5 117.859C307.216 120.27 304.172 122.458 300.367 124.423C296.562 126.326 292.121 127.277 287.048 127.277C279.438 127.277 272.779 125.437 267.071 121.76C261.363 118.017 256.922 113.04 253.752 106.824C250.581 100.547 248.996 93.6006 248.996 85.99C248.996 78.3794 250.581 71.4672 253.752 65.2512C256.922 58.9725 261.363 53.9628 267.071 50.2203C272.779 46.4797 279.438 44.6075 287.048 44.6075ZM295.61 67.3441C292.248 67.3441 289.174 68.1699 286.383 69.8176C283.656 71.4044 281.468 73.6228 279.818 76.4768C278.169 79.268 277.345 82.4397 277.345 85.99C277.345 89.5422 278.169 92.7444 279.818 95.5983C281.468 98.3895 283.656 100.578 286.383 102.162C289.174 103.747 292.248 104.541 295.61 104.541C299.098 104.541 302.173 103.747 304.836 102.162C307.5 100.578 309.595 98.3895 311.117 95.5983C312.702 92.7444 313.495 89.5422 313.495 85.99C313.495 82.4397 312.702 79.268 311.117 76.4768C309.595 73.6228 307.5 71.4044 304.836 69.8176C302.173 68.1699 299.098 67.3441 295.61 67.3441Z" fill="black"/>
<path d="M413.565 44.6075C421.175 44.6075 427.677 46.4797 433.067 50.2203C438.52 53.9628 442.708 58.9725 445.624 65.2512C448.543 71.4672 450 78.3794 450 85.99C450 93.6006 448.446 100.547 445.339 106.824C442.232 113.04 437.854 118.017 432.211 121.76C426.628 125.437 420.034 127.277 412.423 127.277C406.97 127.277 402.307 126.326 398.439 124.423C394.634 122.458 391.62 120.3 389.401 117.954C387.244 115.544 385.881 113.673 385.311 112.342V164.569H356.676V46.8907H385.596V58.3066C386.483 56.5314 388.165 54.5964 390.638 52.5035C393.174 50.3459 396.378 48.508 400.246 46.9858C404.177 45.4009 408.618 44.6075 413.565 44.6075ZM403.861 67.3441C400.374 67.3441 397.234 68.1699 394.443 69.8176C391.717 71.4044 389.559 73.6228 387.974 76.4768C386.387 79.268 385.596 82.4397 385.596 85.99C385.596 89.5422 386.387 92.7444 387.974 95.5983C389.559 98.3895 391.717 100.578 394.443 102.162C397.234 103.747 400.374 104.541 403.861 104.541C407.223 104.541 410.235 103.749 412.899 102.162C415.625 100.578 417.781 98.3895 419.368 95.5983C420.953 92.7444 421.746 89.5422 421.746 85.99C421.746 82.4397 420.953 79.268 419.368 76.4768C417.781 73.6228 415.625 71.4044 412.899 69.8176C410.235 68.1699 407.223 67.3441 403.861 67.3441Z" fill="black"/>
<path d="M39.0525 124.995C60.6206 124.995 78.105 107.51 78.105 85.9423C78.105 64.3742 60.6206 46.8898 39.0525 46.8898C17.4844 46.8898 0 64.3742 0 85.9423C0 107.51 17.4844 124.995 39.0525 124.995Z" fill="#1F75FE"/>
<path d="M133.227 0H104.324V28.9031H133.227V0Z" fill="black"/>
</svg>
